<?xml version="1.0" standalone="no"?>
<!DOCTYPE svg PUBLIC "-//W3C//DTD SVG 20010904//EN"
 "http://www.w3.org/TR/2001/REC-SVG-20010904/DTD/svg10.dtd">
<svg version="1.0" xmlns="http://www.w3.org/2000/svg"
 width="227.000000pt" height="227.000000pt" viewBox="0 0 227.000000 227.000000"
 preserveAspectRatio="xMidYMid meet">
<metadata>
Created by potrace 1.14, written by Peter Selinger 2001-2017
</metadata>
<g transform="translate(0.000000,227.000000) scale(0.100000,-0.100000)"
fill="#000000" stroke="none">
<path d="M20 1135 l0 -1135 1115 0 1115 0 0 1135 0 1135 -1115 0 -1115 0 0
-1135z m1369 1044 c237 -60 445 -193 587 -373 35 -44 64 -84 64 -88 0 -5 -12
-8 -27 -8 -22 0 -36 12 -68 56 -49 69 -171 185 -243 232 -90 57 -212 111 -317
138 -86 23 -120 27 -245 27 -125 0 -159 -4 -245 -27 -105 -27 -227 -81 -317
-138 -72 -47 -194 -163 -243 -232 -32 -44 -46 -56 -67 -56 -16 0 -28 3 -28 8
0 19 135 175 198 228 161 136 376 232 572 258 84 10 296 -3 379 -25z m-1279
-885 l0 -227 24 26 c52 56 139 78 196 50 59 -30 70 -66 70 -235 0 -141 -1
-148 -20 -148 -19 0 -20 7 -20 135 0 187 -18 225 -107 225 -47 0 -97 -29 -123
-72 -17 -28 -20 -51 -20 -160 0 -121 -1 -128 -20 -128 -20 0 -20 7 -20 380 0
373 0 380 20 380 19 0 20 -7 20 -226z m1010 -154 c0 -373 0 -380 -20 -380 -20
0 -20 7 -20 380 0 373 0 380 20 380 20 0 20 -7 20 -380z m224 175 c20 -20 10
-45 -19 -45 -29 0 -39 25 -19 45 9 8 17 15 19 15 2 0 10 -7 19 -15z m266 -85
l0 -90 60 0 c47 0 60 -3 60 -15 0 -12 -13 -15 -60 -15 l-60 0 0 -175 c0 -168
-1 -175 -20 -175 -19 0 -20 7 -20 175 l0 175 -40 0 c-29 0 -40 4 -40 15 0 11
11 15 40 15 l40 0 0 90 c0 83 1 90 20 90 19 0 20 -7 20 -90z m-798 -80 c21 -6
51 -27 71 -49 32 -35 54 -77 45 -86 -2 -2 -75 -31 -163 -65 -88 -34 -161 -63
-163 -65 -8 -8 33 -57 65 -76 42 -26 116 -28 161 -5 39 20 52 20 52 1 0 -40
-122 -66 -197 -41 -90 30 -137 103 -131 202 8 135 129 220 260 184z m1285 -5
c21 -9 46 -23 56 -33 19 -17 61 -92 55 -96 -2 -2 -76 -31 -165 -66 -90 -35
-163 -66 -163 -70 0 -16 43 -61 73 -76 40 -21 115 -21 156 0 30 16 51 15 51
-3 0 -5 -23 -19 -52 -31 -206 -89 -382 167 -224 325 62 61 141 80 213 50z
m-757 -190 c0 -188 -1 -195 -20 -195 -19 0 -20 7 -20 195 0 188 1 195 20 195
19 0 20 -7 20 -195z m-1005 -451 c49 -69 171 -185 243 -232 90 -57 212 -111
317 -138 86 -23 120 -27 245 -27 125 0 159 4 245 27 105 27 227 81 317 138 72
47 194 163 243 232 32 44 46 56 68 56 15 0 27 -3 27 -8 0 -4 -29 -44 -64 -88
-143 -181 -350 -312 -592 -375 -129 -34 -359 -34 -488 0 -242 63 -449 194
-592 375 -35 44 -64 84 -64 88 0 5 12 8 28 8 21 0 35 -12 67 -56z"/>
<path d="M714 1120 c-45 -10 -89 -44 -108 -84 -17 -37 -22 -116 -6 -116 7 0
267 99 278 106 11 7 -14 47 -41 68 -37 27 -79 36 -123 26z"/>
<path d="M1980 1118 c-67 -19 -120 -92 -120 -164 0 -20 5 -34 12 -34 16 0 271
100 282 111 22 21 -93 105 -134 98 -3 0 -21 -5 -40 -11z"/>
</g>
</svg>
